<svg width="16" height="16" viewBox="0 0 16 16" fill="none" xmlns="http://www.w3.org/2000/svg">
<path fill-rule="evenodd" clip-rule="evenodd" d="M7 2.5C4.51472 2.5 2.5 4.51472 2.5 7C2.5 9.48528 4.51472 11.5 7 11.5C9.48528 11.5 11.5 9.48528 11.5 7C11.5 4.51472 9.48528 2.5 7 2.5ZM1.5 7C1.5 3.96243 3.96243 1.5 7 1.5C10.0376 1.5 12.5 3.96243 12.5 7C12.5 8.33875 12.0217 9.56578 11.2266 10.5195L13.6869 12.9798C13.8821 13.175 13.8821 13.4916 13.6869 13.6869C13.4916 13.8821 13.175 13.8821 12.9798 13.6869L10.5195 11.2266C9.56578 12.0217 8.33875 12.5 7 12.5C3.96243 12.5 1.5 10.0376 1.5 7Z" fill="white"/>
</svg>
