<svg width="27" height="27" viewBox="0 0 27 27" fill="none" xmlns="http://www.w3.org/2000/svg">
<path fill-rule="evenodd" clip-rule="evenodd" d="M13.4616 27C20.9174 27 26.9616 20.9558 26.9616 13.5C26.9616 6.04416 20.9174 0 13.4616 0C10.675 0 8.08559 0.844288 5.93523 2.29102C9.47735 2.86259 11.4386 5.13654 11.4386 8.468C11.4386 9.976 10.4246 11.692 8.96856 12.238C10.9966 12.888 12.4266 14.864 12.4266 16.918C12.4266 20.844 9.61856 23.34 4.86056 23.34H4.219C6.6344 25.6096 9.88563 27 13.4616 27ZM1.27231 19.31H4.65256C6.52456 19.31 7.69456 18.478 7.69456 16.918C7.69456 15.358 6.52456 14.526 4.65256 14.526H0C0.127913 16.2282 0.57147 17.8423 1.27231 19.31ZM0.246048 10.73H3.87256C5.66656 10.73 6.70656 9.95 6.70656 8.468C6.70656 6.986 5.66656 6.18 3.87256 6.18H2.1165C1.23285 7.54673 0.589443 9.08332 0.246048 10.73ZM13.5234 20.948C13.5234 19.466 14.6154 18.348 16.1234 18.348C17.6054 18.348 18.6974 19.466 18.6974 20.948C18.6974 22.43 17.6054 23.548 16.1234 23.548C14.6154 23.548 13.5234 22.43 13.5234 20.948Z" fill="white"/>
</svg>
